<svg width="147" height="74" viewBox="0 0 147 74" fill="none" xmlns="http://www.w3.org/2000/svg">
<path d="M5 32C2.23858 32 4.47708e-08 34.2386 0 37C-4.47708e-08 39.7614 2.23858 42 5 42L5 32ZM145.536 40.5355C147.488 38.5829 147.488 35.4171 145.536 33.4645L113.716 1.64466C111.763 -0.307959 108.597 -0.307959 106.645 1.64466C104.692 3.59728 104.692 6.76311 106.645 8.71573L134.929 37L106.645 65.2843C104.692 67.2369 104.692 70.4027 106.645 72.3553C108.597 74.308 111.763 74.308 113.716 72.3553L145.536 40.5355ZM5 42L142 42L142 32L5 32L5 42Z" fill="#3AA098"/>
</svg>
