<svg width="119" height="109" viewBox="0 0 119 109" fill="none" xmlns="http://www.w3.org/2000/svg">
<path d="M13.7001 108.326C15.0654 108.509 17.0285 108.693 19.3729 108.693C29.4474 108.693 46.5292 105.226 53.4284 83.4928L114.579 21.4313C119.482 16.4576 119.426 8.41685 114.442 3.50672C109.634 -1.2198 101.261 -1.16331 96.5249 3.6456L35.8851 65.1916C26.3803 65.6883 10.666 71.7471 8.38045 91.9384C8.05797 92.8375 6.74453 95.9328 3.90814 96.4248C1.15885 96.9003 -0.0345477 98.9858 0.000759974 100.838C0.0949138 105.767 8.6229 107.646 13.7001 108.326ZM102.226 9.25717C103.958 7.5012 107.07 7.47295 108.828 9.21009C110.662 11.0178 110.686 13.9766 108.878 15.8126L61.8881 63.5086L55.2361 56.9579L102.226 9.25717ZM49.6175 62.6542L56.2695 69.2049L49.8999 75.6709L43.2503 69.1202L49.6175 62.6542ZM16.1764 93.8285L16.2964 93.1906C18.043 76.1888 31.2693 73.5996 36.0146 73.2276L45.3405 82.4194C42.3088 90.9144 37.0432 96.5566 29.6074 99.1341C23.4451 101.264 17.165 100.911 12.7468 100.057C14.6111 97.9572 15.7127 95.5492 16.1764 93.8285Z" fill="#02295F"/>
</svg>
