<svg width="133" height="125" viewBox="0 0 133 125" fill="none" xmlns="http://www.w3.org/2000/svg">
<path d="M50.4675 117.173L78.3501 89.2904L122.962 44.5388C124.356 43.1447 124.356 40.9141 122.962 39.6593L85.0419 1.73896C83.6478 0.344827 81.4172 0.344827 80.1625 1.73896L40.848 41.1929L7.11007 74.9308C-2.37002 84.4109 -2.37002 99.7464 7.11007 109.087L15.7536 117.591C20.3542 122.192 26.3491 124.701 32.9015 124.701C33.4591 124.701 33.8774 124.701 34.435 124.562H129.236C131.327 124.562 133 122.889 133 120.798C133 118.707 131.327 117.034 129.236 117.034H50.4675V117.173ZM82.5325 9.96434L114.737 42.1688L78.2108 78.695L46.0063 46.4906L82.5325 9.96434ZM20.9119 112.294L12.2683 103.789C5.71587 97.237 5.71587 86.6416 12.2683 80.2286L40.7086 51.7883L72.913 83.9927L44.6121 112.294C41.4056 115.5 37.3627 117.173 32.762 117.173C28.3008 117.173 24.1184 115.5 20.9119 112.294Z" fill="#02295F"/>
</svg>
