<svg width="337" height="200" viewBox="0 0 337 200" fill="none" xmlns="http://www.w3.org/2000/svg">
<path d="M237 105C239.761 105 242 102.761 242 100C242 97.2386 239.761 95 237 95L237 105ZM96.4645 96.4645C94.5118 98.4171 94.5118 101.583 96.4645 103.536L128.284 135.355C130.237 137.308 133.403 137.308 135.355 135.355C137.308 133.403 137.308 130.237 135.355 128.284L107.071 100L135.355 71.7157C137.308 69.7631 137.308 66.5973 135.355 64.6447C133.403 62.692 130.237 62.692 128.284 64.6447L96.4645 96.4645ZM237 95L100 95L100 105L237 105L237 95Z" fill="#3AA098"/>
</svg>
